<?xml version="1.0" encoding="UTF-8"?>
<svg id="_Слой_1" data-name="Слой 1" xmlns="http://www.w3.org/2000/svg" viewBox="0 0 1080.25 1080">
  <path d="M0,1080V0h1080.25v1080H0ZM586.62,357.75l-21.52-20.5-22.02,20.57,21.83,20.72,21.71-20.78ZM881.75,569.13c.77-1.69.52-2.23-.62-.94-62.48,76.2-157.63,120.2-253.49,134.96-62.94,9.69-126.59,9.17-189.27-1.75-79.53-13.85-163.99-49.94-216.9-112.19,11.92-14.09,25.92-23.94,42.41-31.21,56.93-25.12,133.05-17.81,194.83-10.87,67.06,7.53,155.64,13.34,216.54-16.45,14.71-7.19,27.03-35.31,33.9-53.13-41.94-10.89-83.03-20.68-125.71-27.32-28.74-4.47-56.61-6.86-85.47-4.81-25.9,1.84-53.55,11.97-69.49,32.33l-21.4,27.33,1.86,1.31c18.92-20.27,48.88-27.77,76.23-29.74,62.3-4.5,135.14,11.13,195.04,29.88-80.7,15.13-167.52,15.1-247.39,3.36-66.94-9.84-144.98-4.68-196.2,42.89-19.51,18.12-33.53,40.5-40.75,66.62,104.23,110.95,272.26,140.79,418.15,116.13,35.77-6.05,69.87-15.69,103.23-29.76,66.14-27.9,127.15-74.47,164.52-136.61Z" fill="#fff"/>
  <path d="M881.75,569.13c-37.37,62.14-98.37,108.71-164.52,136.61-33.35,14.07-67.46,23.71-103.23,29.76-145.89,24.66-313.91-5.18-418.15-116.13,7.22-26.12,21.24-48.5,40.75-66.62,51.22-47.57,129.26-52.73,196.2-42.89,79.87,11.74,166.69,11.78,247.39-3.36-59.9-18.75-132.74-34.37-195.04-29.88-27.35,1.98-57.31,9.47-76.23,29.74l-1.86-1.31,21.4-27.33c15.94-20.35,43.59-30.48,69.49-32.33,28.86-2.06,56.73.33,85.47,4.81,42.68,6.64,83.77,16.43,125.71,27.32-6.86,17.82-19.19,45.94-33.9,53.13-60.9,29.79-149.47,23.98-216.54,16.45-61.78-6.94-137.89-14.24-194.83,10.87-16.48,7.27-30.48,17.12-42.41,31.21,52.91,62.25,137.37,98.34,216.9,112.19,62.68,10.92,126.33,11.44,189.27,1.75,95.87-14.76,191.01-58.76,253.49-134.96,1.14-1.29,1.39-.75.62.94Z"/>
  <polygon points="586.62 357.75 564.91 378.53 543.08 357.82 565.1 337.25 586.62 357.75"/>
</svg>